<?xml version="1.0" standalone="no"?>
<!DOCTYPE svg PUBLIC "-//W3C//DTD SVG 20010904//EN"
 "http://www.w3.org/TR/2001/REC-SVG-20010904/DTD/svg10.dtd">
<svg version="1.0" xmlns="http://www.w3.org/2000/svg"
 width="214.000000pt" height="484.000000pt" viewBox="0 0 214.000000 484.000000"
 preserveAspectRatio="xMidYMid meet">
<metadata>
Created by potrace 1.16, written by Peter Selinger 2001-2019
</metadata>
<g transform="translate(0.000000,484.000000) scale(0.100000,-0.100000)"
fill="#000000" stroke="none">
<path d="M1391 4755 c-92 -13 -94 -14 -132 -56 -49 -56 -50 -73 -1 -28 l37 34
-40 -43 c-38 -41 -53 -53 -40 -32 3 6 1 10 -4 10 -6 0 -11 -4 -11 -10 0 -5 -6
-10 -14 -10 -8 0 -17 -4 -21 -9 -3 -6 7 -9 22 -8 22 2 29 -3 31 -21 3 -21 5
-22 25 -9 27 16 103 22 112 7 3 -6 0 -7 -9 -4 -9 4 -18 -1 -22 -10 -3 -9 -10
-13 -15 -10 -5 3 -9 2 -9 -3 0 -4 -28 -9 -63 -10 -43 -2 -56 1 -42 7 16 7 11
9 -22 9 -36 1 -41 4 -37 19 3 9 -9 1 -27 -18 -17 -19 -29 -30 -25 -23 4 8 -10
5 -36 -7 -24 -10 -45 -27 -47 -37 -5 -26 -22 -44 -34 -36 -7 4 -8 0 -3 -12 5
-15 4 -16 -9 -5 -12 10 -15 10 -15 -4 0 -9 -5 -16 -11 -16 -7 0 -18 -8 -26
-17 -8 -10 -11 -12 -7 -4 5 9 3 12 -5 7 -6 -4 -9 -16 -6 -26 3 -10 1 -21 -4
-25 -7 -3 -8 0 -5 9 11 28 -9 17 -50 -26 -22 -24 -33 -34 -25 -24 13 18 13 18
-8 5 -12 -7 -20 -15 -18 -17 5 -6 -19 -31 -26 -26 -3 1 -20 -10 -38 -26 -18
-17 -36 -30 -41 -30 -4 0 -10 -6 -13 -14 -4 -11 1 -11 26 2 18 8 36 21 40 29
4 7 14 13 22 13 7 0 21 7 29 16 9 8 16 13 16 9 0 -3 25 13 55 35 30 22 57 40
60 40 50 -2 55 1 55 26 0 19 16 43 55 82 30 30 52 59 48 65 -3 6 -1 7 6 3 6
-4 9 -11 6 -16 -3 -5 8 -4 25 1 16 6 30 18 31 27 0 14 1 15 7 2 4 -8 15 -15
25 -16 59 -3 59 -3 53 -31 -8 -33 -38 -61 -75 -70 -54 -13 -193 -123 -420
-330 -114 -105 -205 -257 -230 -383 -23 -117 -52 -254 -57 -261 -8 -14 -4
-433 5 -519 5 -47 17 -116 26 -155 16 -70 13 -193 -6 -240 -5 -12 -5 0 -2 29
5 36 3 47 -5 42 -7 -4 -12 -18 -12 -32 0 -25 -15 -33 -23 -11 -6 17 -18 -153
-13 -178 3 -11 5 -23 5 -26 1 -4 8 -9 16 -12 11 -5 12 -1 4 20 -5 14 -8 28 -5
30 2 3 7 -6 12 -19 4 -13 18 -37 31 -55 14 -18 23 -40 20 -50 -4 -16 -5 -16
-6 2 -2 23 -40 77 -41 57 0 -7 11 -35 25 -62 26 -51 33 -76 14 -50 -9 12 -9
11 -3 -5 4 -11 10 -47 13 -80 4 -33 18 -94 33 -135 14 -41 34 -102 43 -135 10
-33 21 -64 26 -69 5 -6 2 -18 -8 -28 -9 -10 -13 -21 -10 -25 4 -4 13 2 21 12
13 18 14 18 22 -6 4 -13 7 -32 5 -43 -2 -11 2 -16 8 -12 7 5 8 1 4 -10 -5 -13
-3 -15 7 -9 9 5 11 4 6 -3 -6 -10 2 -51 20 -110 5 -15 4 -15 -6 -2 -10 13 -11
12 -6 -3 3 -10 6 -24 6 -30 0 -7 5 -4 11 6 10 18 11 18 31 0 28 -25 59 -71 62
-90 2 -9 9 -19 16 -21 8 -3 10 0 5 7 -5 9 -2 9 13 0 11 -7 25 -22 30 -34 11
-23 7 -153 -4 -164 -4 -3 -4 0 0 7 4 7 1 12 -8 12 -8 0 -16 -5 -18 -12 -2 -6
-12 7 -21 29 -14 35 -37 66 -37 49 0 -10 83 -231 89 -236 3 -3 7 -12 9 -21 1
-9 11 -33 22 -55 19 -38 19 -38 17 -9 -1 17 -8 36 -15 44 -9 9 -12 26 -8 45 4
22 3 27 -4 16 -8 -13 -10 -12 -10 3 0 32 25 12 31 -24 6 -36 30 -88 51 -111 7
-7 24 -40 37 -73 30 -74 116 -240 145 -280 12 -16 37 -55 55 -85 l33 -55 -51
50 c-28 27 -51 47 -51 44 0 -7 509 -513 540 -537 22 -17 50 -20 268 -27 l242
-7 0 172 0 173 -35 -6 c-19 -3 -34 -3 -34 1 3 21 -3 32 -16 32 -11 0 -15 -11
-15 -36 0 -31 -3 -36 -20 -31 -11 3 -22 1 -25 -4 -3 -4 -17 -4 -30 1 -14 5
-31 7 -39 4 -8 -3 -16 4 -20 20 -7 28 -67 63 -87 50 -9 -5 -10 -2 -6 10 4 10
7 20 7 22 0 2 7 4 15 4 18 0 19 12 3 28 -9 9 -6 12 15 12 21 0 27 -5 27 -21 0
-15 4 -19 16 -15 9 3 20 6 25 6 5 0 9 8 9 18 0 32 17 37 107 31 48 -3 91 -4
96 -2 4 3 7 62 7 134 0 135 2 129 -42 133 -7 1 -18 7 -24 15 -8 10 -29 14 -73
12 -60 -2 -91 9 -91 32 0 6 3 7 6 4 4 -3 15 -2 24 3 24 13 120 20 120 9 0 -5
18 -9 40 -9 l40 0 0 68 0 69 -85 18 c-57 12 -96 15 -122 9 -67 -14 -107 -11
-111 9 -2 11 3 17 13 17 12 0 15 5 11 16 -5 14 -1 16 33 11 29 -3 41 -1 45 9
3 8 15 14 26 14 12 0 20 7 20 17 0 14 2 14 21 -3 17 -15 22 -16 29 -4 8 13 11
12 22 -3 8 -10 30 -19 56 -21 l42 -3 0 178 0 179 -24 0 c-13 0 -53 9 -87 20
-35 10 -65 17 -67 15 -3 -2 -11 2 -19 10 -16 17 -48 21 -38 5 8 -13 -2 -12
-50 4 -52 17 -96 14 -109 -8 -9 -13 -5 -28 17 -66 15 -28 27 -56 27 -64 0 -7
7 -19 16 -26 20 -18 14 -64 -10 -68 -11 -3 -16 0 -12 7 5 7 1 8 -9 5 -12 -5
-15 -14 -11 -30 5 -17 2 -24 -8 -24 -7 0 -19 -7 -26 -15 -11 -14 -14 -13 -25
2 -12 16 -15 15 -43 -15 -19 -21 -36 -30 -46 -26 -12 5 -16 0 -16 -20 0 -19
-7 -29 -26 -36 -32 -12 -34 -12 -34 1 0 15 -42 48 -61 49 -24 0 -29 10 -16 32
8 13 8 22 2 24 -13 5 -10 81 3 97 7 8 6 18 -4 31 -8 11 -11 29 -8 43 4 15 1
30 -10 41 -23 24 -76 105 -76 117 0 6 -5 16 -12 23 -7 7 -13 22 -13 35 0 14
-6 22 -17 21 -10 -1 -16 2 -15 5 1 4 -15 23 -35 43 -21 19 -38 43 -38 52 0 24
-41 21 -47 -4 -6 -23 -22 -27 -24 -5 -1 8 -2 19 -3 25 0 5 -11 17 -24 26 -13
9 -22 23 -21 32 3 33 -1 42 -20 42 -11 0 -23 9 -26 20 -3 11 -10 20 -15 20
-12 0 -26 40 -29 84 0 10 -6 16 -13 13 -17 -6 -17 48 -1 65 7 6 13 18 13 25 0
14 17 17 63 14 22 -2 27 2 27 20 0 18 3 19 15 9 8 -6 23 -9 33 -6 11 4 29 -2
44 -13 32 -26 130 -59 188 -65 68 -6 124 -18 136 -28 7 -5 23 -4 39 2 15 6 46
12 69 14 61 5 168 31 209 51 22 10 44 14 58 10 15 -5 19 -4 14 5 -6 9 -3 9 13
1 19 -10 23 -7 42 36 11 26 23 80 27 120 3 44 12 78 20 85 8 6 36 11 64 10
l49 -1 0 125 c0 68 -2 124 -4 124 -3 0 -15 -18 -27 -39 -26 -47 -41 -45 -100
13 -15 16 -19 32 -17 75 1 31 -2 56 -7 56 -6 0 -9 -6 -9 -13 1 -7 0 -11 -3 -8
-9 9 -62 -23 -78 -48 -26 -39 -78 -58 -137 -52 -28 4 -56 10 -62 15 -6 4 -33
7 -60 5 -28 -1 -61 3 -75 8 -14 6 -45 12 -68 13 -23 1 -57 11 -75 22 -42 25
-85 36 -101 26 -7 -4 -25 -6 -40 -4 -15 1 -34 -2 -41 -8 -10 -8 -22 -8 -40 -1
-42 16 -66 12 -98 -15 -25 -21 -64 -37 -46 -19 4 3 -2 14 -13 25 -26 26 -24
38 7 49 19 8 24 15 19 30 -6 18 -3 20 18 16 29 -5 41 2 28 18 -13 17 -20 55
-11 61 5 3 -9 23 -31 45 -37 37 -49 60 -31 60 4 0 13 14 19 30 6 17 7 30 2 30
-5 0 -9 11 -9 25 0 14 5 25 10 25 22 0 44 88 25 103 -5 5 0 5 13 2 22 -6 31 8
11 20 -6 4 -8 13 -5 21 3 8 -1 11 -12 8 -9 -2 -7 1 6 7 24 13 29 38 10 58 -11
11 -9 15 7 25 33 19 89 80 77 84 -16 5 167 184 208 203 60 27 104 42 135 44
17 2 41 4 55 5 14 2 32 0 40 -3 8 -3 42 -8 76 -10 33 -2 64 -6 70 -9 5 -3 24
-9 42 -13 18 -4 45 -18 59 -31 35 -32 84 -44 163 -39 36 2 73 4 83 4 16 1 17
37 17 605 l0 604 -67 16 c-93 23 -257 26 -273 5 -3 -3 -52 -13 -110 -22 -58
-9 -127 -21 -155 -26 -27 -5 -65 -12 -84 -16 -19 -3 -39 -9 -44 -12 -6 -3 -7
-1 -3 6 4 6 0 14 -9 17 -14 6 -14 8 2 21 11 9 12 12 3 7 -8 -3 -4 5 11 18 16
16 43 28 75 32 27 5 57 16 67 27 10 10 27 19 37 19 11 0 20 7 20 15 0 19 -81
19 -219 0z m-458 -587 c3 -10 7 -10 20 1 15 12 17 11 17 -7 0 -29 -26 -48 -45
-32 -13 11 -19 9 -35 -10 -24 -28 -25 -40 -5 -40 13 0 14 -4 4 -22 -16 -30
-58 -81 -75 -91 -15 -8 -52 19 -41 30 4 3 2 14 -4 24 -14 26 5 52 74 100 31
22 57 44 57 50 0 14 28 11 33 -3z"/>
</g>
</svg>
